<svg width="44" height="32" viewBox="0 0 44 32" fill="none" xmlns="http://www.w3.org/2000/svg">
<path d="M44 31.9915H32.7659L32.7659 4.90613L44 0L44 31.9915Z" fill="#1D1D1D"/>
<path d="M30.2708 17.2526C30.2708 25.3974 23.4944 32 15.1354 32C6.77634 32 0 25.3974 0 17.2526C0 9.10786 6.77634 2.50524 15.1354 2.50524C23.4944 2.50524 30.2708 9.10786 30.2708 17.2526ZM8.77852 17.2526C8.77852 20.6734 11.6246 23.4465 15.1354 23.4465C18.6462 23.4465 21.4922 20.6734 21.4922 17.2526C21.4922 13.8318 18.6462 11.0587 15.1354 11.0587C11.6246 11.0587 8.77852 13.8318 8.77852 17.2526Z" fill="#1D1D1D"/>
</svg>
